<svg width="139" height="39" viewBox="0 0 139 39" fill="none" xmlns="http://www.w3.org/2000/svg">
<path d="M26.1016 38H18.6553V22.0576C18.6553 18.1188 17.1904 16.1494 14.2607 16.1494C12.1774 16.1494 10.6719 16.8574 9.74414 18.2734C8.81641 19.6895 8.35254 21.9844 8.35254 25.1582V38H0.90625V0.0117188H8.35254V7.75098C8.35254 8.35319 8.29557 9.76921 8.18164 11.999L8.01074 14.1963H8.40137C10.0615 11.527 12.6982 10.1924 16.3115 10.1924C19.5179 10.1924 21.9512 11.055 23.6113 12.7803C25.2715 14.5055 26.1016 16.9795 26.1016 20.2021V38ZM53.1035 38L52.1025 34.5088H51.7119C50.9144 35.7783 49.7832 36.763 48.3184 37.4629C46.8535 38.1465 45.1852 38.4883 43.3135 38.4883C40.1071 38.4883 37.6901 37.6338 36.0625 35.9248C34.4349 34.1995 33.6211 31.7256 33.6211 28.5029V10.7051H41.0674V26.6475C41.0674 28.6169 41.4173 30.098 42.1172 31.0908C42.8171 32.0674 43.932 32.5557 45.4619 32.5557C47.5452 32.5557 49.0508 31.8639 49.9785 30.4805C50.9062 29.0807 51.3701 26.7695 51.3701 23.5469V10.7051H58.8164V38H53.1035ZM91.8242 38H84.3779V22.0576C84.3779 20.0882 84.028 18.6152 83.3281 17.6387C82.6283 16.6458 81.5133 16.1494 79.9834 16.1494C77.9001 16.1494 76.3945 16.8493 75.4668 18.249C74.5391 19.6325 74.0752 21.9355 74.0752 25.1582V38H66.6289V10.7051H72.3174L73.3184 14.1963H73.7334C74.5635 12.8779 75.7028 11.8851 77.1514 11.2178C78.6162 10.5342 80.2764 10.1924 82.1318 10.1924C85.3057 10.1924 87.7145 11.055 89.3584 12.7803C91.0023 14.4893 91.8242 16.9632 91.8242 20.2021V38ZM110.989 32.5557C112.291 32.5557 113.854 32.2708 115.677 31.7012V37.2432C113.821 38.0732 111.543 38.4883 108.841 38.4883C105.862 38.4883 103.689 37.7396 102.322 36.2422C100.971 34.7285 100.296 32.4661 100.296 29.4551V16.2959H96.7314V13.1465L100.833 10.6562L102.981 4.89453H107.742V10.7051H115.384V16.2959H107.742V29.4551C107.742 30.513 108.035 31.2943 108.621 31.7988C109.223 32.3034 110.013 32.5557 110.989 32.5557ZM136.453 10.1924C137.462 10.1924 138.3 10.2656 138.968 10.4121L138.406 17.3945C137.804 17.2318 137.072 17.1504 136.209 17.1504C133.833 17.1504 131.977 17.7607 130.643 18.9814C129.324 20.2021 128.665 21.9111 128.665 24.1084V38H121.219V10.7051H126.858L127.957 15.2949H128.323C129.17 13.765 130.309 12.5361 131.741 11.6084C133.19 10.6644 134.76 10.1924 136.453 10.1924Z" fill="#F261B4"/>
</svg>
